<svg xmlns="http://www.w3.org/2000/svg" xmlns:xlink="http://www.w3.org/1999/xlink" width="500" zoomAndPan="magnify" viewBox="0 0 375 113.999999" height="152" preserveAspectRatio="xMidYMid meet" version="1.0"><defs><g/><clipPath id="4b6af1874a"><path d="M 336.265625 36.71875 L 342.960938 36.71875 L 342.960938 57 L 336.265625 57 Z M 336.265625 36.71875 " clip-rule="nonzero"/></clipPath><clipPath id="dd2bc789b3"><path d="M 325.597656 6.117188 L 353.347656 6.117188 L 353.347656 33.867188 L 325.597656 33.867188 Z M 325.597656 6.117188 " clip-rule="nonzero"/></clipPath><clipPath id="85c8a1eae3"><path d="M 296 74.238281 L 334 74.238281 L 334 77 L 296 77 Z M 296 74.238281 " clip-rule="nonzero"/></clipPath><clipPath id="670d9d148b"><path d="M 291.816406 79 L 329 79 L 329 83 L 291.816406 83 Z M 291.816406 79 " clip-rule="nonzero"/></clipPath><clipPath id="ac10bb0d42"><path d="M 299 84 L 336.066406 84 L 336.066406 86.988281 L 299 86.988281 Z M 299 84 " clip-rule="nonzero"/></clipPath></defs><path fill="#00aeef" d="M 79.867188 86.675781 L 50.027344 56.910156 L 58.632812 48.328125 C 58.632812 48.328125 58.636719 48.324219 58.636719 48.324219 L 79.867188 27.144531 L 101.097656 48.324219 C 101.101562 48.328125 101.101562 48.328125 101.105469 48.332031 L 109.707031 56.910156 Z M 79.867188 86.675781 " fill-opacity="1" fill-rule="nonzero"/><path fill="#33bef2" d="M 79.867188 27.144531 L 98.207031 8.855469 C 102.960938 4.113281 110.667969 4.113281 115.421875 8.855469 L 136.652344 30.03125 L 109.703125 56.910156 L 101.101562 48.332031 C 101.097656 48.332031 101.097656 48.328125 101.09375 48.324219 Z M 79.867188 27.144531 " fill-opacity="1" fill-rule="nonzero"/><path fill="#66cef5" d="M 109.703125 56.910156 L 136.652344 30.03125 L 154.988281 48.324219 C 159.742188 53.066406 159.742188 60.753906 154.988281 65.496094 L 136.652344 83.789062 Z M 109.703125 56.910156 " fill-opacity="1" fill-rule="nonzero"/><path fill="#99dff9" d="M 109.703125 56.910156 L 136.648438 83.792969 L 115.417969 104.96875 C 110.664062 109.710938 102.957031 109.710938 98.203125 104.96875 L 79.863281 86.675781 Z M 109.703125 56.910156 " fill-opacity="1" fill-rule="nonzero"/><path fill="#002c3c" d="M 50.027344 56.910156 L 23.082031 30.03125 L 44.3125 8.855469 C 49.066406 4.113281 56.773438 4.113281 61.527344 8.855469 L 79.027344 26.308594 L 79.863281 27.144531 L 58.632812 48.324219 C 58.632812 48.324219 58.632812 48.328125 58.628906 48.328125 Z M 50.027344 56.910156 " fill-opacity="1" fill-rule="nonzero"/><path fill="#005778" d="M 50.027344 56.910156 L 23.082031 83.792969 L 4.742188 65.5 C -0.0117188 60.757812 -0.015625 53.070312 4.742188 48.328125 L 23.082031 30.035156 Z M 50.027344 56.910156 " fill-opacity="1" fill-rule="nonzero"/><path fill="#0083b3" d="M 44.3125 104.964844 L 23.082031 83.789062 L 50.027344 56.910156 L 79.867188 86.675781 L 61.53125 104.964844 C 56.773438 109.710938 49.066406 109.710938 44.3125 104.964844 Z M 44.3125 104.964844 " fill-opacity="1" fill-rule="nonzero"/><path stroke-linecap="butt" transform="matrix(0, -0.75, 0.75, 0, 167.665716, 95.007587)" fill="none" stroke-linejoin="miter" d="M -0.000300412 1.997795 L 96.85908 1.997795 " stroke="#ffffff" stroke-width="4" stroke-opacity="1" stroke-miterlimit="4"/><g fill="#ffffff" fill-opacity="1"><g transform="translate(178.885041, 56.546882)"><g><path d="M 21.4375 -15.515625 C 22.875 -14.972656 24.03125 -14.113281 24.90625 -12.9375 C 25.789062 -11.769531 26.234375 -10.25 26.234375 -8.375 C 26.234375 -6.570312 25.832031 -5.046875 25.03125 -3.796875 C 24.238281 -2.554688 23.148438 -1.613281 21.765625 -0.96875 C 20.390625 -0.320312 18.851562 0 17.15625 0 L 3.015625 0 L 3.015625 -30.640625 L 15.984375 -30.640625 C 17.710938 -30.640625 19.273438 -30.304688 20.671875 -29.640625 C 22.066406 -28.972656 23.171875 -28 23.984375 -26.71875 C 24.804688 -25.445312 25.21875 -23.910156 25.21875 -22.109375 C 25.21875 -20.503906 24.875 -19.15625 24.1875 -18.0625 C 23.507812 -16.976562 22.59375 -16.128906 21.4375 -15.515625 Z M 18.484375 -21.390625 C 18.484375 -22.304688 18.160156 -23.078125 17.515625 -23.703125 C 16.867188 -24.335938 16.082031 -24.65625 15.15625 -24.65625 L 9.75 -24.65625 L 9.75 -18.078125 L 15.15625 -18.078125 C 16.082031 -18.078125 16.867188 -18.40625 17.515625 -19.0625 C 18.160156 -19.726562 18.484375 -20.503906 18.484375 -21.390625 Z M 16.1875 -5.96875 C 17.132812 -5.96875 17.921875 -6.28125 18.546875 -6.90625 C 19.179688 -7.539062 19.5 -8.316406 19.5 -9.234375 C 19.5 -10.117188 19.179688 -10.894531 18.546875 -11.5625 C 17.921875 -12.226562 17.132812 -12.5625 16.1875 -12.5625 L 9.75 -12.5625 L 9.75 -5.96875 Z M 16.1875 -5.96875 "/></g></g></g><g fill="#ffffff" fill-opacity="1"><g transform="translate(205.788045, 56.546882)"><g><path d="M 23.796875 -10.265625 L 23.796875 -9.140625 L 8.171875 -9.140625 C 8.304688 -7.671875 8.765625 -6.519531 9.546875 -5.6875 C 10.328125 -4.851562 11.453125 -4.4375 12.921875 -4.4375 C 15.160156 -4.4375 16.585938 -5.304688 17.203125 -7.046875 L 23.484375 -7.046875 C 22.972656 -4.835938 21.804688 -3.039062 19.984375 -1.65625 C 18.160156 -0.28125 15.835938 0.40625 13.015625 0.40625 C 10.734375 0.40625 8.734375 -0.0351562 7.015625 -0.921875 C 5.296875 -1.804688 3.957031 -3.046875 3 -4.640625 C 2.050781 -6.242188 1.578125 -8.101562 1.578125 -10.21875 C 1.578125 -12.351562 2.050781 -14.21875 3 -15.8125 C 3.957031 -17.414062 5.285156 -18.660156 6.984375 -19.546875 C 8.691406 -20.429688 10.632812 -20.875 12.8125 -20.875 C 15.03125 -20.875 16.953125 -20.429688 18.578125 -19.546875 C 20.210938 -18.660156 21.488281 -17.425781 22.40625 -15.84375 C 23.332031 -14.269531 23.796875 -12.410156 23.796875 -10.265625 Z M 12.921875 -15.875 C 11.765625 -15.875 10.835938 -15.625 10.140625 -15.125 C 9.441406 -14.632812 8.921875 -13.945312 8.578125 -13.0625 L 17.046875 -13.0625 C 16.710938 -13.945312 16.210938 -14.632812 15.546875 -15.125 C 14.878906 -15.625 14.003906 -15.875 12.921875 -15.875 Z M 12.921875 -15.875 "/></g></g></g><g fill="#ffffff" fill-opacity="1"><g transform="translate(230.291704, 56.546882)"><g><path d="M 3.015625 0 L 3.015625 -34.96875 L 9.546875 -34.96875 L 9.546875 0 Z M 3.015625 0 "/></g></g></g><g fill="#ffffff" fill-opacity="1"><g transform="translate(242.032924, 56.546882)"><g><path d="M 3.015625 0 L 3.015625 -34.96875 L 9.546875 -34.96875 L 9.546875 0 Z M 3.015625 0 "/></g></g></g><g fill="#38b6ff" fill-opacity="1"><g transform="translate(253.779569, 56.546882)"><g><path d="M 17.609375 0.40625 C 15.429688 0.40625 13.394531 0 11.5 -0.8125 C 9.613281 -1.632812 7.945312 -2.765625 6.5 -4.203125 C 5.0625 -5.648438 3.929688 -7.316406 3.109375 -9.203125 C 2.296875 -11.097656 1.890625 -13.132812 1.890625 -15.3125 C 1.890625 -17.488281 2.296875 -19.519531 3.109375 -21.40625 C 3.929688 -23.300781 5.0625 -24.972656 6.5 -26.421875 C 7.945312 -27.867188 9.613281 -29 11.5 -29.8125 C 13.394531 -30.632812 15.429688 -31.046875 17.609375 -31.046875 C 20.640625 -31.046875 23.394531 -30.269531 25.875 -28.71875 C 28.363281 -27.164062 30.253906 -25.132812 31.546875 -22.625 L 25.734375 -19.609375 C 24.984375 -21.066406 23.890625 -22.238281 22.453125 -23.125 C 21.023438 -24.007812 19.410156 -24.453125 17.609375 -24.453125 C 15.910156 -24.453125 14.367188 -24.050781 12.984375 -23.25 C 11.609375 -22.457031 10.519531 -21.367188 9.71875 -19.984375 C 8.925781 -18.609375 8.53125 -17.050781 8.53125 -15.3125 C 8.53125 -13.582031 8.925781 -12.023438 9.71875 -10.640625 C 10.519531 -9.265625 11.609375 -8.175781 12.984375 -7.375 C 14.367188 -6.570312 15.910156 -6.171875 17.609375 -6.171875 C 19.410156 -6.171875 21.023438 -6.613281 22.453125 -7.5 C 23.890625 -8.382812 24.984375 -9.5625 25.734375 -11.03125 L 31.546875 -8.015625 C 30.253906 -5.523438 28.363281 -3.5 25.875 -1.9375 C 23.394531 -0.375 20.640625 0.40625 17.609375 0.40625 Z M 17.609375 0.40625 "/></g></g></g><g fill="#38b6ff" fill-opacity="1"><g transform="translate(285.838594, 56.546882)"><g><path d="M 3.015625 0 L 3.015625 -34.96875 L 9.546875 -34.96875 L 9.546875 0 Z M 3.015625 0 "/></g></g></g><g fill="#38b6ff" fill-opacity="1"><g transform="translate(297.579813, 56.546882)"><g><path d="M 6.375 -23.84375 C 5.425781 -23.84375 4.59375 -24.195312 3.875 -24.90625 C 3.164062 -25.625 2.8125 -26.460938 2.8125 -27.421875 C 2.8125 -28.398438 3.164062 -29.238281 3.875 -29.9375 C 4.59375 -30.632812 5.425781 -30.984375 6.375 -30.984375 C 7.363281 -30.984375 8.207031 -30.632812 8.90625 -29.9375 C 9.601562 -29.238281 9.953125 -28.398438 9.953125 -27.421875 C 9.953125 -26.460938 9.601562 -25.625 8.90625 -24.90625 C 8.207031 -24.195312 7.363281 -23.84375 6.375 -23.84375 Z M 3.109375 0 L 3.109375 -20.421875 L 9.59375 -20.421875 L 9.59375 0 Z M 3.109375 0 "/></g></g></g><g fill="#38b6ff" fill-opacity="1"><g transform="translate(309.52523, 56.546882)"><g><path d="M 15.375 -20.828125 C 16.726562 -20.828125 17.945312 -20.476562 19.03125 -19.78125 C 20.125 -19.082031 21.003906 -18.132812 21.671875 -16.9375 C 22.335938 -15.75 22.671875 -14.410156 22.671875 -12.921875 L 22.671875 0 L 16.1875 0 L 16.1875 -11.84375 C 16.1875 -12.757812 15.882812 -13.523438 15.28125 -14.140625 C 14.6875 -14.753906 13.914062 -15.0625 12.96875 -15.0625 C 12.007812 -15.0625 11.195312 -14.753906 10.53125 -14.140625 C 9.875 -13.523438 9.546875 -12.757812 9.546875 -11.84375 L 9.546875 0 L 3.015625 0 L 3.015625 -20.421875 L 9.546875 -20.421875 L 9.546875 -17.921875 C 10.265625 -18.804688 11.125 -19.507812 12.125 -20.03125 C 13.125 -20.5625 14.207031 -20.828125 15.375 -20.828125 Z M 15.375 -20.828125 "/></g></g></g><g fill="#f10000" fill-opacity="1"><g transform="translate(333.982693, 56.546882)"><g/></g></g><g fill="#38b6ff" fill-opacity="1"><g transform="translate(345.420192, 56.546882)"><g><path d="M 24.8125 -20.421875 L 16.1875 -10.15625 L 24.8125 0 L 17 0 L 12.296875 -5.5625 L 7.609375 0 L -0.25 0 L 8.375 -10.21875 L -0.25 -20.421875 L 7.5 -20.421875 L 12.25 -14.8125 L 17 -20.421875 Z M 24.8125 -20.421875 "/></g></g></g><g clip-path="url(#4b6af1874a)"><path fill="#38b6ff" d="M 336.265625 36.71875 L 342.960938 36.71875 L 342.960938 56.988281 L 336.265625 56.988281 Z M 336.265625 36.71875 " fill-opacity="1" fill-rule="nonzero"/></g><g clip-path="url(#dd2bc789b3)"><path fill="#db0c0c" d="M 330.683594 8.683594 C 329.296875 8.683594 328.167969 9.8125 328.167969 11.199219 L 328.167969 29.050781 C 328.167969 30.4375 329.296875 31.566406 330.683594 31.566406 L 348.53125 31.566406 C 349.921875 31.566406 351.050781 30.4375 351.050781 29.050781 L 351.050781 11.199219 C 351.050781 9.8125 349.921875 8.683594 348.53125 8.683594 Z M 348.53125 34.132812 L 330.683594 34.132812 C 327.878906 34.132812 325.597656 31.855469 325.597656 29.050781 L 325.597656 11.199219 C 325.597656 8.398438 327.878906 6.117188 330.683594 6.117188 L 348.53125 6.117188 C 351.335938 6.117188 353.617188 8.398438 353.617188 11.199219 L 353.617188 29.050781 C 353.617188 31.855469 351.335938 34.132812 348.53125 34.132812 " fill-opacity="1" fill-rule="nonzero"/></g><path fill="#db0c0c" d="M 342.636719 29.5 L 336.527344 29.5 L 336.527344 10.75 L 342.636719 10.75 L 342.636719 29.5 " fill-opacity="1" fill-rule="nonzero"/><path fill="#db0c0c" d="M 330.207031 23.179688 L 330.207031 17.070312 L 348.957031 17.070312 L 348.957031 23.179688 L 330.207031 23.179688 " fill-opacity="1" fill-rule="nonzero"/><g clip-path="url(#85c8a1eae3)"><path fill="#a6a6a6" d="M 298.171875 74.269531 C 298.171875 74.269531 333.035156 75.625 333.035156 75.625 C 333.035156 75.625 298.171875 76.976562 298.171875 76.976562 C 297.425781 77.007812 296.796875 76.425781 296.765625 75.675781 C 296.730469 74.894531 297.386719 74.238281 298.171875 74.269531 Z M 298.171875 74.269531 " fill-opacity="1" fill-rule="nonzero"/></g><g clip-path="url(#670d9d148b)"><path fill="#a6a6a6" d="M 293.308594 79.351562 C 293.308594 79.351562 328.171875 80.703125 328.171875 80.703125 C 328.171875 80.703125 293.308594 82.058594 293.308594 82.058594 C 292.5625 82.085938 291.933594 81.503906 291.902344 80.757812 C 291.867188 79.972656 292.523438 79.316406 293.308594 79.351562 Z M 293.308594 79.351562 " fill-opacity="1" fill-rule="nonzero"/></g><g clip-path="url(#ac10bb0d42)"><path fill="#a6a6a6" d="M 301.339844 84.441406 C 301.339844 84.441406 336.203125 85.792969 336.203125 85.792969 C 336.203125 85.792969 301.339844 87.148438 301.339844 87.148438 C 300.59375 87.175781 299.960938 86.59375 299.933594 85.847656 C 299.898438 85.0625 300.554688 84.40625 301.339844 84.441406 Z M 301.339844 84.441406 " fill-opacity="1" fill-rule="nonzero"/></g><g fill="#a6a6a6" fill-opacity="1"><g transform="translate(178.885041, 89.419967)"><g><path d="M 2.25 0 C 2.25 0 2.25 -7.84375 2.25 -23.53125 C 2.25 -23.53125 6.46875 -23.53125 14.90625 -23.53125 C 14.90625 -23.53125 14.90625 -22.144531 14.90625 -19.375 C 14.90625 -19.375 12.144531 -19.375 6.625 -19.375 C 6.625 -19.375 6.625 -17.523438 6.625 -13.828125 C 6.625 -13.828125 9.269531 -13.828125 14.5625 -13.828125 C 14.5625 -13.828125 14.5625 -12.4375 14.5625 -9.65625 C 14.5625 -9.65625 11.914062 -9.65625 6.625 -9.65625 C 6.625 -9.65625 6.625 -7.828125 6.625 -4.171875 C 6.625 -4.171875 9.382812 -4.171875 14.90625 -4.171875 C 14.90625 -4.171875 14.90625 -2.78125 14.90625 0 C 14.90625 0 10.6875 0 2.25 0 Z M 2.25 0 "/></g></g></g><g fill="#a6a6a6" fill-opacity="1"><g transform="translate(194.934525, 89.419967)"><g><path d="M 2.15625 0 C 2.15625 0 2.15625 -4.597656 2.15625 -13.796875 C 2.15625 -13.796875 1.648438 -13.796875 0.640625 -13.796875 C 0.640625 -13.796875 0.640625 -14.972656 0.640625 -17.328125 C 0.640625 -17.328125 1.144531 -17.328125 2.15625 -17.328125 C 2.257812 -18.460938 2.421875 -19.335938 2.640625 -19.953125 C 2.859375 -20.578125 3.203125 -21.148438 3.671875 -21.671875 C 4.765625 -22.910156 6.207031 -23.53125 8 -23.53125 C 8.363281 -23.53125 8.710938 -23.507812 9.046875 -23.46875 L 9.046875 -19.46875 C 9.046875 -19.46875 8.898438 -19.46875 8.609375 -19.46875 C 7.796875 -19.46875 7.226562 -19.3125 6.90625 -19 C 6.59375 -18.6875 6.425781 -18.128906 6.40625 -17.328125 L 8.796875 -17.328125 C 8.796875 -17.328125 8.796875 -16.148438 8.796875 -13.796875 C 8.796875 -13.796875 8 -13.796875 6.40625 -13.796875 C 6.40625 -13.796875 6.40625 -9.195312 6.40625 0 C 6.40625 0 4.988281 0 2.15625 0 Z M 2.15625 0 "/></g></g></g><g fill="#a6a6a6" fill-opacity="1"><g transform="translate(203.659283, 89.419967)"><g><path d="M 2.15625 0 C 2.15625 0 2.15625 -4.597656 2.15625 -13.796875 C 2.15625 -13.796875 1.648438 -13.796875 0.640625 -13.796875 C 0.640625 -13.796875 0.640625 -14.972656 0.640625 -17.328125 C 0.640625 -17.328125 1.144531 -17.328125 2.15625 -17.328125 C 2.257812 -18.460938 2.421875 -19.335938 2.640625 -19.953125 C 2.859375 -20.578125 3.203125 -21.148438 3.671875 -21.671875 C 4.765625 -22.910156 6.207031 -23.53125 8 -23.53125 C 8.363281 -23.53125 8.710938 -23.507812 9.046875 -23.46875 L 9.046875 -19.46875 C 9.046875 -19.46875 8.898438 -19.46875 8.609375 -19.46875 C 7.796875 -19.46875 7.226562 -19.3125 6.90625 -19 C 6.59375 -18.6875 6.425781 -18.128906 6.40625 -17.328125 L 8.796875 -17.328125 C 8.796875 -17.328125 8.796875 -16.148438 8.796875 -13.796875 C 8.796875 -13.796875 8 -13.796875 6.40625 -13.796875 C 6.40625 -13.796875 6.40625 -9.195312 6.40625 0 C 6.40625 0 4.988281 0 2.15625 0 Z M 2.15625 0 "/></g></g></g><g fill="#a6a6a6" fill-opacity="1"><g transform="translate(212.38404, 89.419967)"><g><path d="M 1.734375 0 C 1.734375 0 1.734375 -5.882812 1.734375 -17.65625 C 1.734375 -17.65625 3.140625 -17.65625 5.953125 -17.65625 C 5.953125 -17.65625 5.953125 -11.769531 5.953125 0 C 5.953125 0 4.546875 0 1.734375 0 Z M 1.734375 -19.546875 C 1.734375 -19.546875 1.734375 -20.875 1.734375 -23.53125 C 1.734375 -23.53125 3.140625 -23.53125 5.953125 -23.53125 C 5.953125 -23.53125 5.953125 -22.203125 5.953125 -19.546875 C 5.953125 -19.546875 4.546875 -19.546875 1.734375 -19.546875 Z M 1.734375 -19.546875 "/></g></g></g><g fill="#a6a6a6" fill-opacity="1"><g transform="translate(219.413689, 89.419967)"><g><path d="M 14.3125 -5.796875 C 14.3125 -5.796875 15.90625 -5.796875 19.09375 -5.796875 C 18.351562 -3.816406 17.222656 -2.285156 15.703125 -1.203125 C 14.179688 -0.117188 12.390625 0.421875 10.328125 0.421875 C 9.046875 0.421875 7.820312 0.175781 6.65625 -0.3125 C 5.488281 -0.800781 4.484375 -1.453125 3.640625 -2.265625 C 2.796875 -3.085938 2.125 -4.066406 1.625 -5.203125 C 1.132812 -6.347656 0.890625 -7.554688 0.890625 -8.828125 C 0.890625 -10.523438 1.296875 -12.082031 2.109375 -13.5 C 2.929688 -14.914062 4.054688 -16.03125 5.484375 -16.84375 C 6.910156 -17.65625 8.476562 -18.0625 10.1875 -18.0625 C 11.457031 -18.0625 12.664062 -17.832031 13.8125 -17.375 C 14.957031 -16.925781 15.957031 -16.285156 16.8125 -15.453125 C 17.375 -14.898438 17.816406 -14.359375 18.140625 -13.828125 C 18.472656 -13.304688 18.789062 -12.617188 19.09375 -11.765625 L 14.3125 -11.765625 C 13.476562 -13.367188 12.101562 -14.171875 10.1875 -14.171875 C 8.71875 -14.171875 7.515625 -13.675781 6.578125 -12.6875 C 5.640625 -11.695312 5.171875 -10.414062 5.171875 -8.84375 C 5.171875 -7.300781 5.660156 -6.019531 6.640625 -5 C 7.617188 -3.976562 8.835938 -3.46875 10.296875 -3.46875 C 11.171875 -3.46875 11.925781 -3.65625 12.5625 -4.03125 C 13.195312 -4.40625 13.78125 -4.992188 14.3125 -5.796875 Z M 14.3125 -5.796875 "/></g></g></g><g fill="#a6a6a6" fill-opacity="1"><g transform="translate(238.682318, 89.419967)"><g><path d="M 1.734375 0 C 1.734375 0 1.734375 -5.882812 1.734375 -17.65625 C 1.734375 -17.65625 3.140625 -17.65625 5.953125 -17.65625 C 5.953125 -17.65625 5.953125 -11.769531 5.953125 0 C 5.953125 0 4.546875 0 1.734375 0 Z M 1.734375 -19.546875 C 1.734375 -19.546875 1.734375 -20.875 1.734375 -23.53125 C 1.734375 -23.53125 3.140625 -23.53125 5.953125 -23.53125 C 5.953125 -23.53125 5.953125 -22.203125 5.953125 -19.546875 C 5.953125 -19.546875 4.546875 -19.546875 1.734375 -19.546875 Z M 1.734375 -19.546875 "/></g></g></g><g fill="#a6a6a6" fill-opacity="1"><g transform="translate(245.711972, 89.419967)"><g><path d="M 19.15625 -6.9375 C 19.15625 -6.9375 14.59375 -6.9375 5.46875 -6.9375 C 5.726562 -5.863281 6.296875 -5.015625 7.171875 -4.390625 C 8.046875 -3.773438 9.109375 -3.46875 10.359375 -3.46875 C 11.234375 -3.46875 11.957031 -3.597656 12.53125 -3.859375 C 13.113281 -4.128906 13.679688 -4.585938 14.234375 -5.234375 L 18.859375 -5.234375 C 18.609375 -4.429688 18.140625 -3.609375 17.453125 -2.765625 C 15.628906 -0.640625 13.296875 0.421875 10.453125 0.421875 C 9.128906 0.421875 7.875 0.179688 6.6875 -0.296875 C 5.507812 -0.773438 4.492188 -1.421875 3.640625 -2.234375 C 2.796875 -3.046875 2.125 -4.019531 1.625 -5.15625 C 1.132812 -6.289062 0.890625 -7.492188 0.890625 -8.765625 C 0.890625 -10.460938 1.300781 -12.023438 2.125 -13.453125 C 2.945312 -14.878906 4.070312 -16.003906 5.5 -16.828125 C 6.925781 -17.648438 8.488281 -18.0625 10.1875 -18.0625 C 11.914062 -18.0625 13.472656 -17.65625 14.859375 -16.84375 C 16.253906 -16.03125 17.34375 -14.898438 18.125 -13.453125 C 18.914062 -12.003906 19.3125 -10.378906 19.3125 -8.578125 C 19.3125 -7.992188 19.257812 -7.445312 19.15625 -6.9375 Z M 5.34375 -10.671875 L 15.140625 -10.671875 C 14.867188 -11.804688 14.3125 -12.671875 13.46875 -13.265625 C 12.632812 -13.867188 11.5625 -14.171875 10.25 -14.171875 C 8.988281 -14.171875 7.9375 -13.875 7.09375 -13.28125 C 6.257812 -12.6875 5.675781 -11.816406 5.34375 -10.671875 Z M 5.34375 -10.671875 "/></g></g></g><g fill="#a6a6a6" fill-opacity="1"><g transform="translate(265.26053, 89.419967)"><g><path d="M 1.734375 0 C 1.734375 0 1.734375 -5.882812 1.734375 -17.65625 C 1.734375 -17.65625 3.03125 -17.65625 5.625 -17.65625 C 5.625 -17.65625 5.625 -17.085938 5.625 -15.953125 C 6.40625 -16.710938 7.171875 -17.253906 7.921875 -17.578125 C 8.679688 -17.898438 9.578125 -18.0625 10.609375 -18.0625 C 13.179688 -18.0625 15.054688 -17.160156 16.234375 -15.359375 C 16.660156 -14.671875 16.957031 -13.894531 17.125 -13.03125 C 17.300781 -12.175781 17.390625 -10.984375 17.390625 -9.453125 L 17.390625 0 L 13.15625 0 C 13.15625 0 13.15625 -2.878906 13.15625 -8.640625 C 13.15625 -10.921875 12.859375 -12.414062 12.265625 -13.125 C 11.691406 -13.820312 10.863281 -14.171875 9.78125 -14.171875 C 8.332031 -14.171875 7.28125 -13.597656 6.625 -12.453125 C 6.363281 -12.054688 6.1875 -11.554688 6.09375 -10.953125 C 6 -10.347656 5.953125 -9.472656 5.953125 -8.328125 L 5.953125 0 C 5.953125 0 4.546875 0 1.734375 0 Z M 1.734375 0 "/></g></g></g><g fill="#a6a6a6" fill-opacity="1"><g transform="translate(283.658282, 89.419967)"><g><path d="M 2.484375 0 C 2.484375 0 2.484375 -4.597656 2.484375 -13.796875 C 2.484375 -13.796875 1.796875 -13.796875 0.421875 -13.796875 C 0.421875 -13.796875 0.421875 -15.082031 0.421875 -17.65625 C 0.421875 -17.65625 1.109375 -17.65625 2.484375 -17.65625 C 2.484375 -17.65625 2.484375 -19.613281 2.484375 -23.53125 C 2.484375 -23.53125 3.894531 -23.53125 6.71875 -23.53125 C 6.71875 -23.53125 6.71875 -21.570312 6.71875 -17.65625 C 6.71875 -17.65625 7.566406 -17.65625 9.265625 -17.65625 C 9.265625 -17.65625 9.265625 -16.367188 9.265625 -13.796875 C 9.265625 -13.796875 8.414062 -13.796875 6.71875 -13.796875 C 6.71875 -13.796875 6.71875 -9.195312 6.71875 0 C 6.71875 0 5.304688 0 2.484375 0 Z M 2.484375 0 "/></g></g></g></svg>