<svg width="57" height="57" viewBox="0 0 57 57" fill="none" xmlns="http://www.w3.org/2000/svg">
<g clip-path="url(#clip0_12_236)">
<path d="M10.5721 25.2322L6.28104 46.3432C1.16952 39.9726 -1.17876 31.4566 0.57538 22.8274C0.990337 20.7997 1.60334 18.8664 2.40496 17.0463L41.0195 24.8927C42.0334 25.1002 42.3304 26.2555 41.8966 28.3633C41.4769 30.4333 40.7602 31.367 39.7417 31.1595L10.5674 25.2322H10.5721Z" fill="#EA6338"/>
<path d="M56.4249 34.1774C53.2891 49.6015 38.2469 59.5605 22.8275 56.4294C18.9892 55.6514 15.4903 54.1283 12.4442 52.0535L16.1741 33.6964L38.3177 38.1949C40.9347 38.7277 43.2594 38.0817 45.3012 36.2569C47.1732 34.6442 48.3851 32.494 48.9321 29.7967C49.4791 27.1042 49.2103 24.6286 48.121 22.3747C46.9563 19.9038 45.0654 18.3996 42.4484 17.8667L6.38013 10.5295C12.8544 2.5699 23.4217 -1.60797 34.1775 0.575273C49.6017 3.71103 59.5606 18.7532 56.4296 34.1726L56.4249 34.1774Z" fill="#252E3D"/>
</g>
<defs>
<clipPath id="clip0_12_236">
<rect width="57" height="57" fill="white"/>
</clipPath>
</defs>
</svg>
