<svg width="74" height="73" viewBox="0 0 74 73" fill="none" xmlns="http://www.w3.org/2000/svg">
<path fill-rule="evenodd" clip-rule="evenodd" d="M36.7792 0C16.4671 0 0 16.3382 0 36.4961C0 53.7893 12.1117 68.2717 28.3762 72.0373C25.4077 70.5412 23.3819 67.4792 23.3819 63.9533V55.4865C22.6729 55.4865 22.1003 54.9182 22.1003 54.2145V52.5869C22.1003 51.8833 22.6729 51.315 23.3819 51.315H32.6615C33.3705 51.315 33.9432 51.8833 33.9432 52.5869V54.2145C33.9432 54.9182 33.3705 55.4865 32.6615 55.4865H32.5329V72.7564C33.9276 72.9188 35.3456 73 36.7831 73C57.0953 73 73.5624 56.6579 73.5624 36.5C73.5624 16.3421 57.0953 0 36.7792 0ZM58.5912 29.1196C58.4938 32.2898 57.5589 34.9961 55.7824 37.2307C54.1891 39.2256 52.1828 40.4628 49.7675 40.9538C50.4648 40.6715 50.9596 39.9911 50.9596 39.1947C50.9596 37.8145 49.9973 36.9098 49.3506 35.3286C49.3273 35.2744 49.3078 35.2126 49.2805 35.1546C49.2766 35.1391 49.2688 35.1159 49.2571 35.0966C49.2416 35.0502 49.2221 34.9999 49.2065 34.9458C49.1987 34.9226 49.1909 34.8994 49.1792 34.8762C49.1636 34.826 49.1442 34.7757 49.1325 34.7216C49.1247 34.6945 49.1169 34.6752 49.1091 34.652C49.0857 34.5785 49.0624 34.5012 49.0429 34.4278C49.0195 34.4974 49.0039 34.5592 48.9844 34.6288C48.9689 34.6945 48.9455 34.7602 48.926 34.8221C48.8598 35.0154 48.7974 35.1971 48.7234 35.3672C48.6299 35.6031 48.5247 35.8196 48.4196 36.0206C48.3689 36.1211 48.3183 36.2255 48.2598 36.3222C48.1274 36.5657 47.9949 36.7938 47.8703 37.0181C47.7417 37.2423 47.6209 37.4588 47.5197 37.6792C47.4768 37.7642 47.4379 37.8531 47.3989 37.9382C47.3638 38.0271 47.3288 38.1122 47.3015 38.2011C47.1924 38.5104 47.1301 38.8351 47.1301 39.1908C47.1301 39.7127 47.3444 40.1883 47.6911 40.5324C47.7339 40.5749 47.7807 40.6174 47.8274 40.6561C47.8742 40.6947 47.9209 40.7295 47.9716 40.7643C48.2521 40.9499 48.5793 41.0659 48.9416 41.0852C48.404 41.1587 47.8508 41.1935 47.2781 41.1935H38.3336C35.1469 41.1935 33.2926 42.3533 32.7628 44.673C32.7394 44.7735 32.7199 44.8817 32.7043 44.9977C33.3861 44.9977 33.9354 45.5467 33.9354 46.2194V47.9514C33.9354 48.628 33.3861 49.1731 32.7043 49.1731H23.3235C22.6418 49.1731 22.0925 48.628 22.0925 47.9514V46.2194C22.0925 45.5467 22.6418 44.9977 23.3235 44.9977H23.3742V36.817C23.3742 33.8092 25.8323 31.3658 28.8671 31.3658C29.1515 31.3658 29.3813 31.5939 29.3891 31.8761C29.393 32.1661 29.6151 32.4096 29.9111 32.4096H33.0511C33.3393 32.4096 33.5692 32.1815 33.5731 31.8993C33.577 31.6055 33.799 31.3658 34.0912 31.3658C35.2249 31.3658 36.3351 31.6055 37.3753 32.0385C40.7762 33.4419 42.2215 31.6867 44.3018 31.3155C46.1873 30.9792 46.7756 32.5372 46.9509 33.728C47.5352 33.9252 48.1508 34.0257 48.7663 34.018C49.5065 34.0102 50.2466 33.8478 50.9245 33.5502C50.7219 30.1944 49.3935 28.2613 46.4483 27.577C44.3291 27.086 43.324 26.1543 42.8682 25.5434C42.6812 25.2883 42.8643 24.9326 43.176 24.9326C43.3941 24.9326 43.5694 24.7625 43.5694 24.546V23.4983C43.5694 23.2856 43.3941 23.1155 43.1799 23.1155H41.1619V21.6618L44.8355 21.8204C45.4861 21.8474 46.0276 21.3294 46.0276 20.6837C46.0276 19.9956 45.416 19.462 44.7226 19.5548L41.2359 20.0381L41.0996 19.8177C40.8892 19.4852 40.4957 19.3112 40.0945 19.3963C39.8101 19.4504 39.5763 19.6437 39.44 19.8989L39.3855 19.9956L35.9066 19.5432C35.1937 19.4543 34.5665 20.0033 34.5665 20.7146C34.5665 21.426 35.1469 21.9325 35.8326 21.8899L39.4322 21.6618V23.1155H37.4688C37.2545 23.1155 37.0792 23.2895 37.0792 23.5021V24.6736C37.0792 24.8901 37.2584 25.064 37.4766 25.0602C37.8233 25.0563 37.9869 25.4854 37.7415 25.7251C37.3168 26.1504 36.7364 26.3901 36.1325 26.3901H34.1185C33.764 26.3901 33.4757 26.104 33.4679 25.7522C33.4601 25.3888 33.1796 25.0872 32.8134 25.0872H30.1449C29.7865 25.0872 29.4982 25.3733 29.4904 25.7251C29.4826 26.0886 29.2021 26.3901 28.8398 26.3901H19.1707C19.1707 26.711 18.9097 26.97 18.5825 26.97H15.5477C15.2244 26.97 14.9634 26.711 14.9634 26.3901V16.315C15.423 15.9361 15.8983 15.5688 16.3775 15.217H18.6019C18.9136 15.2248 19.1668 15.4838 19.1668 15.8008V15.9439H47.2703C50.757 15.9439 53.5424 17.2158 55.6266 19.7636C57.4926 22.0059 58.4743 24.7857 58.5756 28.1028V29.1273L58.5912 29.1196Z" fill="#134697"/>
</svg>
